<svg width="50" height="95" viewBox="0 0 50 95" fill="none" xmlns="http://www.w3.org/2000/svg">
<path d="M11.6 18.36C11.6 20.44 12.1067 22.2533 13.12 23.8C14.1333 25.3467 15.36 26.6533 16.8 27.72C18.24 28.7333 20.2667 30.04 22.88 31.64C25.6533 33.2933 27.8133 34.68 29.36 35.8C30.9067 36.92 32.2133 38.36 33.28 40.12C34.4 41.8267 34.96 43.88 34.96 46.28C34.96 48.84 34.32 51.16 33.04 53.24C31.76 55.32 29.8667 56.9733 27.36 58.2C24.9067 59.3733 21.9467 59.96 18.48 59.96C14.3733 59.96 10.6133 59.0267 7.2 57.16C6.93333 57 6.74667 56.8133 6.64 56.6C6.58667 56.3867 6.53333 56.0667 6.48 55.64L5.44 44.76C5.38667 44.5467 5.49333 44.4133 5.76 44.36C6.08 44.3067 6.26667 44.3867 6.32 44.6C7.12 48.3867 8.69333 51.6933 11.04 54.52C13.3867 57.2933 16.48 58.68 20.32 58.68C22.9867 58.68 25.2267 57.96 27.04 56.52C28.9067 55.0267 29.84 52.68 29.84 49.48C29.84 47.08 29.3067 45 28.24 43.24C27.1733 41.48 25.8667 40.04 24.32 38.92C22.8267 37.7467 20.7733 36.3867 18.16 34.84C15.6 33.2933 13.5733 31.96 12.08 30.84C10.64 29.72 9.41333 28.3067 8.4 26.6C7.38667 24.8933 6.88 22.8933 6.88 20.6C6.88 17.9333 7.57333 15.6667 8.96 13.8C10.4 11.88 12.24 10.4667 14.48 9.56C16.7733 8.6 19.2 8.12 21.76 8.12C24.9067 8.12 28.0267 8.76 31.12 10.04C31.92 10.3067 32.32 10.76 32.32 11.4L32.88 20.52C32.88 20.7867 32.72 20.92 32.4 20.92C32.1333 20.92 31.9733 20.8133 31.92 20.6C31.5467 17.8267 30.4267 15.2667 28.56 12.92C26.6933 10.52 24 9.32 20.48 9.32C17.4933 9.32 15.2533 10.2 13.76 11.96C12.32 13.6667 11.6 15.8 11.6 18.36Z" fill="black"/>
<path d="M29.9824 46C29.9824 47.8667 30.5958 49.36 31.8224 50.48C33.0491 51.5467 34.8624 52.6933 37.2624 53.92C39.1291 54.88 40.5691 55.7067 41.5824 56.4C42.6491 57.0933 43.5558 58 44.3024 59.12C45.0491 60.24 45.4224 61.6 45.4224 63.2C45.4224 65.92 44.4091 68.2133 42.3824 70.08C40.3558 71.9467 37.6091 72.88 34.1424 72.88C31.3158 72.88 28.7558 72.08 26.4624 70.48C26.1424 70.2667 25.9824 69.9467 25.9824 69.52L25.8224 63.28C25.8224 63.12 25.9558 63.04 26.2224 63.04C26.5424 62.9867 26.7291 63.04 26.7824 63.2C27.7958 65.92 29.1024 67.9733 30.7024 69.36C32.3558 70.6933 34.2491 71.36 36.3824 71.36C38.0358 71.36 39.3158 70.9867 40.2224 70.24C41.1824 69.44 41.6624 68.2667 41.6624 66.72C41.6624 65.2267 41.3158 63.9733 40.6224 62.96C39.9824 61.8933 39.1824 61.0667 38.2224 60.48C37.2624 59.84 35.9558 59.0933 34.3024 58.24C32.5424 57.3867 31.1291 56.6133 30.0624 55.92C29.0491 55.2267 28.1691 54.32 27.4224 53.2C26.7291 52.08 26.3824 50.6933 26.3824 49.04C26.3824 46.16 27.4491 43.9733 29.5824 42.48C31.7691 40.9333 34.3291 40.16 37.2624 40.16C39.3958 40.16 41.3424 40.56 43.1024 41.36C43.4224 41.4667 43.6091 41.6 43.6624 41.76C43.7691 41.8667 43.8224 42.0267 43.8224 42.24C43.8224 43.3067 43.7958 44.1333 43.7424 44.72L43.6624 48.08C43.6624 48.1867 43.5024 48.24 43.1824 48.24C42.8624 48.24 42.7024 48.1867 42.7024 48.08C42.7024 46.3733 41.7958 44.88 39.9824 43.6C38.2224 42.32 36.3558 41.68 34.3824 41.68C32.9958 41.68 31.9024 42.0533 31.1024 42.8C30.3558 43.4933 29.9824 44.56 29.9824 46Z" fill="black"/>
</svg>
